<svg width="81" height="56" viewBox="0 0 81 56" fill="none" xmlns="http://www.w3.org/2000/svg">
<circle cx="28" cy="28" r="28" fill="#9DF3C4" fill-opacity="0.3"/>
<circle cx="52.6667" cy="28" r="28" fill="#A640F7" fill-opacity="0.3"/>
<path d="M52.012 30.6003C52.2957 30.3906 52.5721 30.1715 52.8407 29.9436C57.5693 33.1968 60.6667 38.6503 60.6667 44.8283C60.6667 45.111 60.4391 45.3333 60.1667 45.3333C59.8944 45.3333 59.6667 45.111 59.6667 44.8283C59.6667 38.8802 56.6231 33.6457 52.012 30.6003ZM32.4928 29.9436C32.7614 30.1715 33.0378 30.3906 33.3215 30.6003C28.7104 33.6457 25.6667 38.8802 25.6667 44.8283C25.6667 45.111 25.4391 45.3333 25.1667 45.3333C24.8944 45.3333 24.6667 45.111 24.6667 44.8283C24.6667 38.6503 27.7642 33.1968 32.4928 29.9436ZM51.9167 17.5859C51.9167 22.8838 47.6317 27.1717 42.3542 27.1717C37.0768 27.1717 32.7917 22.8838 32.7917 17.5859C32.7917 12.2879 37.0768 8 42.3542 8C47.6317 8 51.9167 12.2879 51.9167 17.5859Z" stroke="#171717" stroke-width="4"/>
</svg>
