<svg width="211" height="38" viewBox="0 0 211 38" fill="none" xmlns="http://www.w3.org/2000/svg">
<circle cx="90" cy="20" r="15" fill="#1FAB89" fill-opacity="0.3"/>
<circle cx="105" cy="20" r="15" fill="#9DF3C4" fill-opacity="0.3"/>
<path d="M7.66972 37.5303C7.96261 37.8232 8.43749 37.8232 8.73038 37.5303C9.02327 37.2374 9.02327 36.7626 8.73038 36.4697L7.66972 37.5303ZM31.6697 15.6697C31.3768 15.9626 31.3768 16.4374 31.6697 16.7303C31.9626 17.0232 32.4375 17.0232 32.7304 16.7303L31.6697 15.6697ZM14.8697 30.8697C14.5768 31.1626 14.5768 31.6374 14.8697 31.9303C15.1626 32.2232 15.6375 32.2232 15.9304 31.9303L14.8697 30.8697ZM33.2697 10.8697C32.9768 11.1626 32.9768 11.6374 33.2697 11.9303C33.5626 12.2232 34.0375 12.2232 34.3304 11.9303L33.2697 10.8697ZM14.3303 33.5303C14.6232 33.2374 14.6232 32.7626 14.3303 32.4697C14.0374 32.1768 13.5626 32.1768 13.2697 32.4697L14.3303 33.5303ZM12.4697 33.2697C12.1768 33.5626 12.1768 34.0374 12.4697 34.3303C12.7626 34.6232 13.2374 34.6232 13.5303 34.3303L12.4697 33.2697ZM28.9072 19.3071L29.4375 18.7768L28.9072 19.3071ZM32.0143 19.5858L32.5446 20.1161L32.0143 19.5858ZM29.1858 19.5858L28.6555 20.1161L29.1858 19.5858ZM40.2929 8.10711L40.8233 8.63744L40.2929 8.10711ZM41.7072 8.10711L42.2375 7.57678L41.7072 8.10711ZM38.6929 5.09289L39.2233 4.56256L38.6929 5.09289ZM38.693 6.50709L38.1626 5.97676L38.693 6.50709ZM37.0929 4.90711L37.6233 5.43744L37.0929 4.90711ZM38.5072 4.90711L39.0375 4.37678L38.5072 4.90711ZM28.2929 12.2929L28.8233 11.7626L28.2929 12.2929ZM28.1072 10.6929L27.5768 10.1626L28.1072 10.6929ZM35.4929 1.89289L36.0233 1.36256L35.4929 1.89289ZM35.4929 3.30711L36.0233 3.83744L35.4929 3.30711ZM33.8929 1.70711L34.4233 2.23744L33.8929 1.70711ZM35.3072 1.70711L34.7768 2.23744L35.3072 1.70711ZM24.0143 11.5858L23.4839 11.0555L24.0143 11.5858ZM24.2929 14.6929L23.7626 15.2232L24.2929 14.6929ZM41.8929 8.29289L41.3626 8.82322L41.8929 8.29289ZM41.8929 9.70711L41.3626 9.17678L41.8929 9.70711ZM7.21426 36.0142L6.68393 36.5445L7.21426 36.0142ZM7.21426 33.1858L6.68393 32.6555L7.21426 33.1858ZM8.73038 36.4697L7.74459 35.4839L6.68393 36.5445L7.66972 37.5303L8.73038 36.4697ZM7.74459 33.7161L24.8233 16.6374L23.7626 15.5768L6.68393 32.6555L7.74459 33.7161ZM24.8233 14.1626L24.5446 13.8839L23.4839 14.9445L23.7626 15.2232L24.8233 14.1626ZM24.5446 12.1161L34.4233 2.23744L33.3626 1.17678L23.4839 11.0555L24.5446 12.1161ZM34.7768 2.23744L34.9626 2.42322L36.0233 1.36256L35.8375 1.17678L34.7768 2.23744ZM34.9626 2.77678L27.5768 10.1626L28.6375 11.2232L36.0233 3.83744L34.9626 2.77678ZM27.5768 12.6374L27.7626 12.8232L28.8233 11.7626L28.6375 11.5768L27.5768 12.6374ZM30.2375 12.8232L37.6233 5.43744L36.5626 4.37678L29.1768 11.7626L30.2375 12.8232ZM37.9768 5.43744L38.1626 5.62322L39.2233 4.56256L39.0375 4.37678L37.9768 5.43744ZM32.7304 16.7303L40.8233 8.63744L39.7626 7.57678L31.6697 15.6697L32.7304 16.7303ZM41.1768 8.63744L41.3626 8.82322L42.4233 7.76256L42.2375 7.57678L41.1768 8.63744ZM41.3626 9.17678L31.4839 19.0555L32.5446 20.1161L42.4233 10.2374L41.3626 9.17678ZM29.7162 19.0555L29.4375 18.7768L28.3768 19.8374L28.6555 20.1161L29.7162 19.0555ZM26.9626 18.7768L14.8697 30.8697L15.9304 31.9303L28.0233 19.8374L26.9626 18.7768ZM38.1626 5.97676C37.0464 7.09301 34.8414 9.29798 33.2697 10.8697L34.3304 11.9303C35.9021 10.3586 38.107 8.15367 39.2233 7.03742L38.1626 5.97676ZM13.2697 32.4697L12.4697 33.2697L13.5303 34.3303L14.3303 33.5303L13.2697 32.4697ZM29.4375 18.7768C28.7541 18.0934 27.646 18.0934 26.9626 18.7768L28.0233 19.8374C28.1209 19.7398 28.2792 19.7398 28.3768 19.8374L29.4375 18.7768ZM31.4839 19.0555C30.9958 19.5436 30.2043 19.5436 29.7162 19.0555L28.6555 20.1161C29.7294 21.1901 31.4706 21.1901 32.5446 20.1161L31.4839 19.0555ZM40.8233 8.63744C40.9209 8.53981 41.0792 8.53981 41.1768 8.63744L42.2375 7.57678C41.5541 6.89336 40.446 6.89336 39.7626 7.57678L40.8233 8.63744ZM38.1626 5.62322C38.2603 5.72087 38.2602 5.87915 38.1626 5.97676L39.2233 7.03742C39.9067 6.35399 39.9067 5.24597 39.2233 4.56256L38.1626 5.62322ZM37.6233 5.43744C37.7209 5.33981 37.8792 5.33981 37.9768 5.43744L39.0375 4.37678C38.3541 3.69336 37.246 3.69336 36.5626 4.37678L37.6233 5.43744ZM27.7626 12.8232C28.446 13.5066 29.5541 13.5066 30.2375 12.8232L29.1768 11.7626C29.0792 11.8602 28.9209 11.8602 28.8233 11.7626L27.7626 12.8232ZM27.5768 10.1626C26.8934 10.846 26.8934 11.954 27.5768 12.6374L28.6375 11.5768C28.5399 11.4791 28.5399 11.3209 28.6375 11.2232L27.5768 10.1626ZM34.9626 2.42322C35.0602 2.52085 35.0602 2.67915 34.9626 2.77678L36.0233 3.83744C36.7067 3.15402 36.7067 2.04598 36.0233 1.36256L34.9626 2.42322ZM34.4233 2.23744C34.5209 2.13981 34.6792 2.13981 34.7768 2.23744L35.8375 1.17678C35.1541 0.49336 34.046 0.493359 33.3626 1.17678L34.4233 2.23744ZM24.5446 13.8839C24.0564 13.3957 24.0564 12.6043 24.5446 12.1161L23.4839 11.0555C22.41 12.1294 22.41 13.8706 23.4839 14.9445L24.5446 13.8839ZM24.8233 16.6374C25.5067 15.954 25.5067 14.846 24.8233 14.1626L23.7626 15.2232C23.8602 15.3209 23.8602 15.4791 23.7626 15.5768L24.8233 16.6374ZM41.3626 8.82322C41.4602 8.92085 41.4602 9.07915 41.3626 9.17678L42.4233 10.2374C43.1067 9.55402 43.1067 8.44598 42.4233 7.76256L41.3626 8.82322ZM7.74459 35.4839C7.25644 34.9957 7.25644 34.2043 7.74459 33.7161L6.68393 32.6555C5.60999 33.7294 5.60999 35.4706 6.68393 36.5445L7.74459 35.4839Z" fill="#171717"/>
<path d="M30.0697 35.1303C30.3626 35.4232 30.8374 35.4232 31.1303 35.1303C31.4232 34.8374 31.4232 34.3625 31.1303 34.0696L30.0697 35.1303ZM9 3.34998C9.41421 3.34998 9.75 3.01419 9.75 2.59998C9.75 2.18576 9.41421 1.84998 9 1.84998V3.34998ZM30.6 29L31.1303 28.4696L30.6 29ZM15.1303 7.66964C14.8374 7.37675 14.3626 7.37675 14.0697 7.66964C13.7768 7.96254 13.7768 8.43741 14.0697 8.73031L15.1303 7.66964ZM17.4 11L16.8697 11.5303V11.5303L17.4 11ZM12.7303 5.26965C12.4374 4.97675 11.9626 4.97675 11.6697 5.26965C11.3768 5.56254 11.3768 6.03741 11.6697 6.33031L12.7303 5.26965ZM12.4697 7.13031C12.7626 7.4232 13.2374 7.4232 13.5303 7.13031C13.8232 6.83741 13.8232 6.36254 13.5303 6.06965L12.4697 7.13031ZM8.73033 13.2696C8.43744 12.9768 7.96256 12.9768 7.66967 13.2696C7.37678 13.5625 7.37678 14.0374 7.66967 14.3303L8.73033 13.2696ZM10.8697 17.5303C11.1626 17.8232 11.6374 17.8232 11.9303 17.5303C12.2232 17.2374 12.2232 16.7625 11.9303 16.4696L10.8697 17.5303ZM18.6343 18.0949C18.9272 18.3878 19.402 18.3878 19.6949 18.0949C19.9878 17.802 19.9878 17.3271 19.6949 17.0342L18.6343 18.0949ZM15.4796 21.2792C15.779 21.5655 16.2537 21.555 16.54 21.2557C16.8263 20.9563 16.8158 20.4816 16.5165 20.1953L15.4796 21.2792ZM26.3303 23.6696C26.0374 23.3768 25.5626 23.3768 25.2697 23.6696C24.9768 23.9625 24.9768 24.4374 25.2697 24.7303L26.3303 23.6696ZM23.9303 26.8696C23.6374 26.5768 23.1626 26.5768 22.8697 26.8696C22.5768 27.1625 22.5768 27.6374 22.8697 27.9303L23.9303 26.8696ZM33 31.4L32.4697 31.9303L33 31.4ZM33.2697 36.4696C32.9768 36.7625 32.9768 37.2374 33.2697 37.5303C33.5626 37.8232 34.0374 37.8232 34.3303 37.5303L33.2697 36.4696ZM34.7858 36.0142L34.2555 35.4839L34.7858 36.0142ZM18.7858 15.2142L18.2555 14.6839L18.7858 15.2142ZM18.7858 12.3858L19.3161 11.8554L18.7858 12.3858ZM1.97056 11.5705L1.44023 12.1009L1.97056 11.5705ZM13.6142 20.3858L14.1445 20.9161L13.6142 20.3858ZM18.5071 15.4929L19.0374 16.0232L18.5071 15.4929ZM18.5071 16.9071L17.9768 17.4374L18.5071 16.9071ZM13.9084 20.0915L13.3781 19.5612L13.9084 20.0915ZM15.3068 20.076L14.7883 20.618L15.3068 20.076ZM13.3781 19.5612L13.0839 19.8554L14.1445 20.9161L14.4388 20.6219L13.3781 19.5612ZM11.3161 19.8554L2.50089 11.0402L1.44023 12.1009L10.2555 20.9161L11.3161 19.8554ZM18.2555 14.6839L17.9768 14.9625L19.0374 16.0232L19.3161 15.7445L18.2555 14.6839ZM7.62742 3.34998H9V1.84998H7.62742V3.34998ZM14.0697 8.73031L16.8697 11.5303L17.9303 10.4696L15.1303 7.66964L14.0697 8.73031ZM16.8697 11.5303L18.2555 12.9161L19.3161 11.8554L17.9303 10.4696L16.8697 11.5303ZM11.6697 6.33031L12.4697 7.13031L13.5303 6.06965L12.7303 5.26965L11.6697 6.33031ZM7.66967 14.3303L10.8697 17.5303L11.9303 16.4696L8.73033 13.2696L7.66967 14.3303ZM17.9768 17.4374L18.6343 18.0949L19.6949 17.0342L19.0374 16.3768L17.9768 17.4374ZM16.5165 20.1953L15.8252 19.534L14.7883 20.618L15.4796 21.2792L16.5165 20.1953ZM25.2697 24.7303L30.0697 29.5303L31.1303 28.4696L26.3303 23.6696L25.2697 24.7303ZM31.1303 34.0696L23.9303 26.8696L22.8697 27.9303L30.0697 35.1303L31.1303 34.0696ZM32.4697 31.9303L34.2555 33.7161L35.3161 32.6554L33.5303 30.8696L32.4697 31.9303ZM34.2555 35.4839L33.2697 36.4696L34.3303 37.5303L35.3161 36.5445L34.2555 35.4839ZM33.5303 30.8696L31.1303 28.4696L30.0697 29.5303L32.4697 31.9303L33.5303 30.8696ZM34.2555 33.7161C34.7436 34.2042 34.7436 34.9957 34.2555 35.4839L35.3161 36.5445C36.3901 35.4706 36.3901 33.7294 35.3161 32.6554L34.2555 33.7161ZM1.75 9.22739C1.75 5.98138 4.38141 3.34998 7.62742 3.34998V1.84998C3.55298 1.84998 0.25 5.15296 0.25 9.22739H1.75ZM19.3161 15.7445C20.3901 14.6706 20.3901 12.9294 19.3161 11.8554L18.2555 12.9161C18.7436 13.4042 18.7436 14.1957 18.2555 14.6839L19.3161 15.7445ZM2.50089 11.0402C2.0201 10.5594 1.75 9.90733 1.75 9.22739H0.25C0.25 10.3052 0.678139 11.3388 1.44023 12.1009L2.50089 11.0402ZM13.0839 19.8554C12.5957 20.3436 11.8043 20.3436 11.3161 19.8554L10.2555 20.9161C11.3294 21.99 13.0706 21.99 14.1445 20.9161L13.0839 19.8554ZM17.9768 14.9625C17.2934 15.646 17.2934 16.754 17.9768 17.4374L19.0374 16.3768C18.9398 16.2791 18.9398 16.1208 19.0374 16.0232L17.9768 14.9625ZM14.4388 20.6219C14.5349 20.5258 14.6901 20.524 14.7883 20.618L15.8252 19.534C15.1377 18.8764 14.0508 18.8885 13.3781 19.5612L14.4388 20.6219Z" fill="#1FAB89"/>
<path d="M90.72 28C90.592 28 90.472 27.952 90.36 27.856C90.264 27.744 90.216 27.624 90.216 27.496C90.216 27.4 90.224 27.328 90.24 27.28L95.88 11.872C95.928 11.68 96.032 11.52 96.192 11.392C96.352 11.264 96.56 11.2 96.816 11.2H100.368C100.624 11.2 100.832 11.264 100.992 11.392C101.152 11.52 101.256 11.68 101.304 11.872L106.92 27.28L106.968 27.496C106.968 27.624 106.912 27.744 106.8 27.856C106.704 27.952 106.584 28 106.44 28H103.488C103.104 28 102.848 27.832 102.72 27.496L101.784 25.048H95.376L94.464 27.496C94.336 27.832 94.072 28 93.672 28H90.72ZM100.824 21.592L98.592 15.256L96.36 21.592H100.824ZM113.039 28.24C111.631 28.24 110.495 27.768 109.631 26.824C108.767 25.864 108.335 24.528 108.335 22.816V16.12C108.335 15.944 108.391 15.8 108.503 15.688C108.615 15.576 108.759 15.52 108.935 15.52H111.935C112.111 15.52 112.255 15.576 112.367 15.688C112.495 15.8 112.559 15.944 112.559 16.12V22.672C112.559 24.24 113.255 25.024 114.647 25.024C115.319 25.024 115.847 24.816 116.231 24.4C116.615 23.984 116.807 23.408 116.807 22.672V16.12C116.807 15.944 116.863 15.8 116.975 15.688C117.103 15.576 117.247 15.52 117.407 15.52H120.407C120.583 15.52 120.727 15.576 120.839 15.688C120.951 15.8 121.007 15.944 121.007 16.12V27.4C121.007 27.56 120.951 27.704 120.839 27.832C120.727 27.944 120.583 28 120.407 28H117.623C117.463 28 117.319 27.944 117.191 27.832C117.079 27.704 117.023 27.56 117.023 27.4V26.488C116.191 27.656 114.863 28.24 113.039 28.24ZM130.214 28C126.902 28 125.246 26.424 125.246 23.272V18.664H123.374C123.198 18.664 123.046 18.608 122.918 18.496C122.806 18.384 122.75 18.24 122.75 18.064V16.12C122.75 15.944 122.806 15.8 122.918 15.688C123.046 15.576 123.198 15.52 123.374 15.52H125.246V11.56C125.246 11.384 125.302 11.24 125.414 11.128C125.542 11.016 125.686 10.96 125.846 10.96H128.63C128.806 10.96 128.95 11.016 129.062 11.128C129.174 11.24 129.23 11.384 129.23 11.56V15.52H132.23C132.406 15.52 132.55 15.576 132.662 15.688C132.79 15.8 132.854 15.944 132.854 16.12V18.064C132.854 18.24 132.79 18.384 132.662 18.496C132.55 18.608 132.406 18.664 132.23 18.664H129.23V22.936C129.23 24.12 129.686 24.712 130.598 24.712H132.446C132.622 24.712 132.766 24.768 132.878 24.88C132.99 24.992 133.046 25.136 133.046 25.312V27.4C133.046 27.56 132.99 27.704 132.878 27.832C132.766 27.944 132.622 28 132.446 28H130.214ZM140.937 28.24C138.953 28.24 137.425 27.768 136.353 26.824C135.281 25.88 134.697 24.552 134.601 22.84C134.585 22.632 134.577 22.272 134.577 21.76C134.577 21.248 134.585 20.888 134.601 20.68C134.697 18.984 135.297 17.664 136.401 16.72C137.505 15.76 139.017 15.28 140.937 15.28C142.873 15.28 144.393 15.76 145.497 16.72C146.601 17.664 147.201 18.984 147.297 20.68C147.313 20.888 147.321 21.248 147.321 21.76C147.321 22.272 147.313 22.632 147.297 22.84C147.201 24.552 146.617 25.88 145.545 26.824C144.473 27.768 142.937 28.24 140.937 28.24ZM140.937 25.312C141.641 25.312 142.161 25.104 142.497 24.688C142.833 24.256 143.025 23.6 143.073 22.72C143.089 22.56 143.097 22.24 143.097 21.76C143.097 21.28 143.089 20.96 143.073 20.8C143.025 19.936 142.825 19.288 142.473 18.856C142.137 18.424 141.625 18.208 140.937 18.208C139.609 18.208 138.905 19.072 138.825 20.8L138.801 21.76L138.825 22.72C138.857 23.6 139.041 24.256 139.377 24.688C139.729 25.104 140.249 25.312 140.937 25.312Z" fill="#171717"/>
<path d="M151.721 28C151.561 28 151.417 27.944 151.289 27.832C151.177 27.704 151.121 27.56 151.121 27.4V18.664H149.297C149.121 18.664 148.977 18.608 148.865 18.496C148.753 18.384 148.697 18.24 148.697 18.064V16.12C148.697 15.944 148.753 15.8 148.865 15.688C148.977 15.576 149.121 15.52 149.297 15.52H151.121V14.752C151.121 13.168 151.569 12.024 152.465 11.32C153.377 10.6 154.681 10.24 156.377 10.24H158.249C158.425 10.24 158.569 10.296 158.681 10.408C158.793 10.52 158.849 10.664 158.849 10.84V12.784C158.849 12.944 158.793 13.088 158.681 13.216C158.569 13.328 158.425 13.384 158.249 13.384H156.569C156.041 13.384 155.665 13.512 155.441 13.768C155.217 14.008 155.105 14.376 155.105 14.872V15.52H158.009C158.185 15.52 158.329 15.576 158.441 15.688C158.553 15.8 158.609 15.944 158.609 16.12V18.064C158.609 18.224 158.553 18.368 158.441 18.496C158.329 18.608 158.185 18.664 158.009 18.664H155.105V27.4C155.105 27.56 155.049 27.704 154.937 27.832C154.825 27.944 154.681 28 154.505 28H151.721ZM166.086 28.24C164.102 28.24 162.574 27.768 161.502 26.824C160.43 25.88 159.846 24.552 159.75 22.84C159.734 22.632 159.726 22.272 159.726 21.76C159.726 21.248 159.734 20.888 159.75 20.68C159.846 18.984 160.446 17.664 161.55 16.72C162.654 15.76 164.166 15.28 166.086 15.28C168.022 15.28 169.542 15.76 170.646 16.72C171.75 17.664 172.35 18.984 172.446 20.68C172.462 20.888 172.47 21.248 172.47 21.76C172.47 22.272 172.462 22.632 172.446 22.84C172.35 24.552 171.766 25.88 170.694 26.824C169.622 27.768 168.086 28.24 166.086 28.24ZM166.086 25.312C166.79 25.312 167.31 25.104 167.646 24.688C167.982 24.256 168.174 23.6 168.222 22.72C168.238 22.56 168.246 22.24 168.246 21.76C168.246 21.28 168.238 20.96 168.222 20.8C168.174 19.936 167.974 19.288 167.622 18.856C167.286 18.424 166.774 18.208 166.086 18.208C164.758 18.208 164.054 19.072 163.974 20.8L163.95 21.76L163.974 22.72C164.006 23.6 164.19 24.256 164.526 24.688C164.878 25.104 165.398 25.312 166.086 25.312ZM180.758 28.24C178.774 28.24 177.246 27.768 176.174 26.824C175.102 25.88 174.518 24.552 174.422 22.84C174.406 22.632 174.398 22.272 174.398 21.76C174.398 21.248 174.406 20.888 174.422 20.68C174.518 18.984 175.118 17.664 176.222 16.72C177.326 15.76 178.838 15.28 180.758 15.28C182.694 15.28 184.214 15.76 185.318 16.72C186.422 17.664 187.022 18.984 187.118 20.68C187.134 20.888 187.142 21.248 187.142 21.76C187.142 22.272 187.134 22.632 187.118 22.84C187.022 24.552 186.438 25.88 185.366 26.824C184.294 27.768 182.758 28.24 180.758 28.24ZM180.758 25.312C181.462 25.312 181.982 25.104 182.318 24.688C182.654 24.256 182.846 23.6 182.894 22.72C182.91 22.56 182.918 22.24 182.918 21.76C182.918 21.28 182.91 20.96 182.894 20.8C182.846 19.936 182.646 19.288 182.294 18.856C181.958 18.424 181.446 18.208 180.758 18.208C179.43 18.208 178.726 19.072 178.646 20.8L178.622 21.76L178.646 22.72C178.678 23.6 178.862 24.256 179.198 24.688C179.55 25.104 180.07 25.312 180.758 25.312ZM194.181 28.24C192.613 28.24 191.389 27.752 190.509 26.776C189.645 25.784 189.173 24.392 189.093 22.6L189.069 21.76L189.093 20.896C189.157 19.168 189.629 17.8 190.509 16.792C191.405 15.784 192.629 15.28 194.181 15.28C195.637 15.28 196.813 15.752 197.709 16.696V11.56C197.709 11.384 197.765 11.24 197.877 11.128C197.989 11.016 198.133 10.96 198.309 10.96H201.237C201.413 10.96 201.557 11.016 201.669 11.128C201.781 11.24 201.837 11.384 201.837 11.56V27.4C201.837 27.56 201.781 27.704 201.669 27.832C201.557 27.944 201.413 28 201.237 28H198.525C198.365 28 198.221 27.944 198.093 27.832C197.981 27.704 197.925 27.56 197.925 27.4V26.632C197.045 27.704 195.797 28.24 194.181 28.24ZM195.501 25.024C196.221 25.024 196.757 24.8 197.109 24.352C197.461 23.888 197.661 23.296 197.709 22.576C197.725 22.368 197.733 22.064 197.733 21.664C197.733 21.28 197.725 20.984 197.709 20.776C197.677 20.12 197.477 19.576 197.109 19.144C196.741 18.712 196.205 18.496 195.501 18.496C194.749 18.496 194.205 18.72 193.869 19.168C193.549 19.616 193.365 20.232 193.317 21.016C193.301 21.176 193.293 21.424 193.293 21.76C193.293 22.096 193.301 22.344 193.317 22.504C193.365 23.288 193.549 23.904 193.869 24.352C194.205 24.8 194.749 25.024 195.501 25.024Z" fill="#1FAB89"/>
<path d="M205.146 28C204.986 28 204.842 27.944 204.714 27.832C204.602 27.704 204.546 27.56 204.546 27.4V24.352C204.546 24.176 204.602 24.032 204.714 23.92C204.842 23.808 204.986 23.752 205.146 23.752H208.194C208.37 23.752 208.514 23.808 208.626 23.92C208.738 24.032 208.794 24.176 208.794 24.352V27.4C208.794 27.56 208.738 27.704 208.626 27.832C208.514 27.944 208.37 28 208.194 28H205.146Z" fill="#4D4D4D"/>
</svg>
