<svg width="64" height="56" viewBox="0 0 64 56" fill="none" xmlns="http://www.w3.org/2000/svg">
<path d="M11.6739 54.6723C12.1621 55.1604 12.9535 55.1604 13.4417 54.6723C13.9298 54.1841 13.9298 53.3927 13.4417 52.9045L11.6739 54.6723ZM46.8662 22.4046C46.378 22.8927 46.378 23.6842 46.8662 24.1723C47.3543 24.6605 48.1458 24.6605 48.634 24.1723L46.8662 22.4046ZM22.2316 44.693C21.7434 45.1811 21.7434 45.9726 22.2316 46.4608C22.7198 46.9489 23.5112 46.9489 23.9994 46.4608L22.2316 44.693ZM49.2123 15.3661C48.7242 15.8543 48.7242 16.6457 49.2123 17.1339C49.7005 17.622 50.4919 17.622 50.9801 17.1339L49.2123 15.3661ZM21.6531 48.8069C22.1413 48.3188 22.1413 47.5273 21.6531 47.0391C21.165 46.551 20.3735 46.551 19.8854 47.0391L21.6531 48.8069ZM18.7123 48.2122C18.2241 48.7004 18.2241 49.4918 18.7123 49.98C19.2005 50.4681 19.9919 50.4681 20.4801 49.98L18.7123 48.2122ZM42.5918 27.5148L43.4757 26.6309L42.5918 27.5148ZM41.1776 27.5148L40.2937 26.6309L41.1776 27.5148ZM46.8181 28.9127L45.9342 28.0288L46.8181 28.9127ZM43.9897 28.9127L43.1058 29.7966L43.9897 28.9127ZM59.9468 11.0917L60.8307 11.9756L59.9468 11.0917ZM61.361 11.0917L60.4771 11.9756L61.361 11.0917ZM57.6006 7.33135L58.4845 6.44746L57.6006 7.33135ZM57.6028 8.74337L56.719 7.85948L57.6028 8.74337ZM56.6687 6.39941L55.7848 7.28329L56.6687 6.39941ZM42.3507 17.889L41.4668 18.7729L42.3507 17.889ZM41.4187 15.5429L42.3026 16.4268L41.4187 15.5429ZM41.4187 16.9571L42.3026 16.0732L41.4187 16.9571ZM52.9083 2.63904L53.7922 1.75516L52.9083 2.63904ZM52.9083 4.05326L53.7922 4.93714L52.9083 4.05326ZM50.5622 1.70711L49.6783 0.823223L50.5622 1.70711ZM51.9764 1.70711L51.0925 2.59099L51.9764 1.70711ZM36.4853 22.8225L37.3692 23.7064L36.4853 22.8225ZM62.2929 12.0236L61.4091 12.9075L62.2929 12.0236ZM62.2929 13.4379L61.4091 12.554L62.2929 13.4379ZM10.4528 51.6834L11.3367 50.7995L10.4528 51.6834ZM10.4528 48.855L11.3367 49.7388L10.4528 48.855ZM13.4417 52.9045L11.3367 50.7995L9.56891 52.5673L11.6739 54.6723L13.4417 52.9045ZM11.3367 49.7388L37.3692 23.7064L35.6014 21.9386L9.5689 47.9711L11.3367 49.7388ZM37.3692 20.5244L35.9713 19.1265L34.2035 20.8942L35.6014 22.2921L37.3692 20.5244ZM35.9713 18.0658L51.4461 2.59099L49.6783 0.823223L34.2035 16.298L35.9713 18.0658ZM51.0925 2.59099L52.0245 3.52293L53.7922 1.75516L52.8603 0.823224L51.0925 2.59099ZM52.0245 3.16937L40.5348 14.659L42.3026 16.4268L53.7922 4.93714L52.0245 3.16937ZM40.5348 17.841L41.4668 18.7729L43.2345 17.0051L42.3026 16.0732L40.5348 17.841ZM44.6488 18.7729L56.1384 7.28329L54.3706 5.51553L42.881 17.0051L44.6488 18.7729ZM55.7848 7.28329L56.7168 8.21523L58.4845 6.44746L57.5526 5.51552L55.7848 7.28329ZM48.634 24.1723L60.8307 11.9756L59.0629 10.2078L46.8662 22.4046L48.634 24.1723ZM60.4771 11.9756L61.4091 12.9075L63.1768 11.1398L62.2449 10.2078L60.4771 11.9756ZM61.4091 12.554L45.9342 28.0288L47.702 29.7966L63.1768 14.3217L61.4091 12.554ZM44.8736 28.0288L43.4757 26.6309L41.7079 28.3987L43.1058 29.7966L44.8736 28.0288ZM40.2937 26.6309L22.2316 44.693L23.9994 46.4608L42.0615 28.3987L40.2937 26.6309ZM56.719 7.85948C55.2272 9.35126 51.6852 12.8932 49.2123 15.3661L50.9801 17.1339C53.453 14.661 56.9949 11.119 58.4867 9.62725L56.719 7.85948ZM19.8854 47.0391L18.7123 48.2122L20.4801 49.98L21.6531 48.8069L19.8854 47.0391ZM43.4757 26.6309C42.597 25.7522 41.1724 25.7522 40.2937 26.6309L42.0615 28.3987C41.9638 28.4963 41.8055 28.4963 41.7079 28.3987L43.4757 26.6309ZM45.9342 28.0288C45.6414 28.3217 45.1665 28.3217 44.8736 28.0288L43.1058 29.7966C44.375 31.0658 46.4328 31.0658 47.702 29.7966L45.9342 28.0288ZM60.8307 11.9756C60.733 12.0732 60.5748 12.0732 60.4771 11.9756L62.2449 10.2078C61.3662 9.32915 59.9416 9.32915 59.0629 10.2078L60.8307 11.9756ZM56.7168 8.21523C56.6227 8.12119 56.6177 7.96069 56.719 7.85948L58.4867 9.62725C59.369 8.74499 59.3596 7.32256 58.4845 6.44746L56.7168 8.21523ZM56.1384 7.28329C56.0407 7.38092 55.8825 7.38092 55.7848 7.28329L57.5526 5.51552C56.6739 4.63685 55.2493 4.63685 54.3706 5.51553L56.1384 7.28329ZM41.4668 18.7729C42.3455 19.6516 43.7701 19.6516 44.6488 18.7729L42.881 17.0051C42.9786 16.9075 43.1369 16.9075 43.2345 17.0051L41.4668 18.7729ZM40.5348 14.659C39.6562 15.5377 39.6562 16.9623 40.5348 17.841L42.3026 16.0732C42.4002 16.1708 42.4002 16.3291 42.3026 16.4268L40.5348 14.659ZM52.0245 3.52293C51.9268 3.4253 51.9268 3.26701 52.0245 3.16937L53.7922 4.93714C54.6709 4.05846 54.6709 2.63384 53.7922 1.75516L52.0245 3.52293ZM51.4461 2.59099C51.3484 2.68862 51.1902 2.68862 51.0925 2.59099L52.8603 0.823224C51.9816 -0.0554549 50.557 -0.0554579 49.6783 0.823223L51.4461 2.59099ZM35.9713 19.1265C35.6784 18.8336 35.6784 18.3587 35.9713 18.0658L34.2035 16.298C32.9343 17.5672 32.9343 19.625 34.2035 20.8942L35.9713 19.1265ZM37.3692 23.7064C38.2478 22.8277 38.2478 21.403 37.3692 20.5244L35.6014 22.2921C35.5038 22.1945 35.5038 22.0362 35.6014 21.9386L37.3692 23.7064ZM61.4091 12.9075C61.3114 12.8099 61.3114 12.6516 61.4091 12.554L63.1768 14.3217C64.0555 13.4431 64.0555 12.0184 63.1768 11.1398L61.4091 12.9075ZM11.3367 50.7995C11.0438 50.5066 11.0438 50.0317 11.3367 49.7388L9.5689 47.9711C8.2997 49.2403 8.2997 51.2981 9.56891 52.5673L11.3367 50.7995Z" fill="#171717"/>
<path d="M44.5199 51.153C45.0081 51.6412 45.7995 51.6412 46.2877 51.153C46.7758 50.6649 46.7758 49.8734 46.2877 49.3853L44.5199 51.153ZM13.7308 4.59613C14.4211 4.59613 14.9808 4.03649 14.9808 3.34613C14.9808 2.65577 14.4211 2.09613 13.7308 2.09613V4.59613ZM45.4038 42.0576L46.2877 41.1737L45.4038 42.0576ZM22.8262 10.6738C22.338 10.1856 21.5466 10.1856 21.0584 10.6738C20.5702 11.1619 20.5702 11.9534 21.0584 12.4415L22.8262 10.6738ZM26.048 15.6634L25.1642 16.5473H25.1642L26.048 15.6634ZM19.3069 7.15455C18.8188 6.66639 18.0273 6.66639 17.5392 7.15455C17.051 7.64271 17.051 8.43416 17.5392 8.92232L19.3069 7.15455ZM18.7123 10.0954C19.2004 10.5835 19.9919 10.5835 20.48 10.0954C20.9682 9.60723 20.9682 8.81578 20.48 8.32762L18.7123 10.0954ZM13.4416 18.8853C12.9534 18.3971 12.162 18.3971 11.6738 18.8853C11.1856 19.3735 11.1856 20.1649 11.6738 20.6531L13.4416 18.8853ZM16.3661 25.3454C16.8543 25.8335 17.6457 25.8335 18.1339 25.3454C18.622 24.8572 18.622 24.0658 18.1339 23.5776L16.3661 25.3454ZM27.7517 26.1733C28.2398 26.6614 29.0313 26.6614 29.5194 26.1733C30.0076 25.6851 30.0076 24.8937 29.5194 24.4055L27.7517 26.1733ZM23.1283 30.8449C23.6272 31.3221 24.4184 31.3045 24.8956 30.8056C25.3728 30.3068 25.3552 29.5155 24.8563 29.0383L23.1283 30.8449ZM39.2492 34.1353C38.7611 33.6471 37.9696 33.6471 37.4815 34.1353C36.9933 34.6234 36.9933 35.4149 37.4815 35.9031L39.2492 34.1353ZM35.73 38.8276C35.2418 38.3394 34.4504 38.3394 33.9622 38.8276C33.4741 39.3157 33.4741 40.1072 33.9622 40.5954L35.73 38.8276ZM48.923 45.5769L48.0391 46.4607L48.923 45.5769ZM49.2122 52.9045C48.7241 53.3926 48.7241 54.1841 49.2122 54.6723C49.7004 55.1604 50.4918 55.1604 50.98 54.6723L49.2122 52.9045ZM52.2011 48.8549L51.3172 49.7388L52.2011 48.8549ZM28.7396 21.1834L27.8557 20.2995L28.7396 21.1834ZM28.7396 18.355L27.8557 19.2389L28.7396 18.355ZM19.8373 30.0857L18.9534 29.2018L19.8373 30.0857ZM27.3417 22.5813L28.2256 23.4652L27.3417 22.5813ZM27.3417 23.9955L28.2256 23.1116L27.3417 23.9955ZM21.2507 28.6723L22.1346 29.5562L21.2507 28.6723ZM22.649 28.6567L21.785 29.5601L22.649 28.6567ZM20.3668 27.7884L18.9534 29.2018L20.7212 30.9696L22.1346 29.5562L20.3668 27.7884ZM17.8927 29.2018L4.30706 15.6162L2.5393 17.3839L16.125 30.9696L17.8927 29.2018ZM27.8557 20.2995L26.4578 21.6974L28.2256 23.4652L29.6235 22.0673L27.8557 20.2995ZM11.7181 4.59613H13.7308V2.09613H11.7181V4.59613ZM21.0584 12.4415L25.1642 16.5473L26.9319 14.7795L22.8262 10.6738L21.0584 12.4415ZM25.1642 16.5473L27.8557 19.2389L29.6235 17.4711L26.9319 14.7795L25.1642 16.5473ZM17.5392 8.92232L18.7123 10.0954L20.48 8.32762L19.3069 7.15455L17.5392 8.92232ZM11.6738 20.6531L16.3661 25.3454L18.1339 23.5776L13.4416 18.8853L11.6738 20.6531ZM26.4578 24.8794L27.7517 26.1733L29.5194 24.4055L28.2256 23.1116L26.4578 24.8794ZM24.8563 29.0383L23.5131 27.7534L21.785 29.5601L23.1283 30.8449L24.8563 29.0383ZM37.4815 35.9031L44.5199 42.9415L46.2877 41.1737L39.2492 34.1353L37.4815 35.9031ZM46.2877 49.3853L35.73 38.8276L33.9622 40.5954L44.5199 51.153L46.2877 49.3853ZM48.0391 46.4607L51.3172 49.7388L53.085 47.9711L49.8069 44.693L48.0391 46.4607ZM51.3172 50.7995L49.2122 52.9045L50.98 54.6723L53.085 52.5672L51.3172 50.7995ZM49.8069 44.693L46.2877 41.1737L44.5199 42.9415L48.0391 46.4607L49.8069 44.693ZM51.3172 49.7388C51.6101 50.0317 51.6101 50.5066 51.3172 50.7995L53.085 52.5672C54.3542 51.298 54.3542 49.2403 53.085 47.9711L51.3172 49.7388ZM3.25 13.0642C3.25 8.38742 7.04129 4.59613 11.7181 4.59613V2.09613C5.66057 2.09613 0.75 7.00671 0.75 13.0642H3.25ZM29.6235 22.0673C30.8927 20.7981 30.8927 18.7403 29.6235 17.4711L27.8557 19.2389C28.1486 19.5317 28.1486 20.0066 27.8557 20.2995L29.6235 22.0673ZM4.30706 15.6162C3.63024 14.9394 3.25 14.0214 3.25 13.0642H0.75C0.75 14.6844 1.39363 16.2383 2.5393 17.3839L4.30706 15.6162ZM18.9534 29.2018C18.6605 29.4947 18.1856 29.4947 17.8927 29.2018L16.125 30.9696C17.3942 32.2388 19.452 32.2388 20.7212 30.9696L18.9534 29.2018ZM26.4578 21.6974C25.5791 22.5761 25.5791 24.0007 26.4578 24.8794L28.2256 23.1116C28.3232 23.2093 28.3232 23.3676 28.2256 23.4652L26.4578 21.6974ZM22.1346 29.5562C22.0385 29.6523 21.8832 29.654 21.785 29.5601L23.5131 27.7534C22.6292 26.908 21.2317 26.9235 20.3668 27.7884L22.1346 29.5562Z" fill="#1FAB89"/>
</svg>
