<svg width="95" height="49" viewBox="0 0 95 49" fill="none" xmlns="http://www.w3.org/2000/svg">
<path d="M72.4346 4.21631H45.8778C45.085 4.21631 44.3245 4.53009 43.7623 5.08909L5.15587 43.4811C3.25786 45.3686 4.59451 48.6083 7.27126 48.6083H38.3322C39.1895 48.6083 40.0058 48.2416 40.5751 47.6006L74.6775 9.20862C76.3962 7.27369 75.0226 4.21631 72.4346 4.21631Z" fill="#A640F7" fill-opacity="0.3"/>
<path d="M77.5 18.9763L73.8799 23.0923" stroke="#1FAB89" stroke-width="4" stroke-linecap="round"/>
<path d="M83.0801 12.8963L93.0001 2.97632H58.5281L18.8481 42.6563H27.4661M67.2081 28.7683L60.2641 35.7123L53.3201 42.6563H44.7021H36.0841" stroke="#171717" stroke-width="4" stroke-linecap="round" stroke-linejoin="round"/>
<path d="M44.392 25.2963H55.552M52.824 17.7676H67.952M59.52 10.6643H65.224M34.72 33.9763H50.592" stroke="#1FAB89" stroke-width="2" stroke-linecap="round"/>
</svg>
