<svg width="100" height="41" viewBox="0 0 100 41" fill="none" xmlns="http://www.w3.org/2000/svg">
<path d="M56.9008 39.8612L79.9364 10.7408C80.9736 9.42955 80.0397 7.5 78.3678 7.5H28.4352C27.5276 7.5 26.6689 7.91082 26.0994 8.61742L2.62347 37.7449C1.56899 39.0533 2.50027 41 4.18067 41H54.548C55.4651 41 56.3318 40.5805 56.9008 39.8612Z" fill="#A640F7" fill-opacity="0.3"/>
<path d="M37.8892 11.6922L44.7524 3.44191C45.5124 2.52836 46.6392 2 47.8275 2H95.2347C96.9296 2 97.8562 3.97608 96.7722 5.27905L91.4373 11.6922M37.8892 11.6922H64.6633H91.4373M37.8892 11.6922L33.0419 17.5191M91.4373 11.6922L73.2476 33.5581C72.4876 34.4716 71.3608 35 70.1725 35H22.7653C21.0704 35 20.1438 33.0239 21.2278 31.721L28.1946 23.3461" stroke="#171717" stroke-width="4" stroke-linecap="round" stroke-linejoin="round"/>
<path d="M61 20H73.5" stroke="#1FAB89" stroke-width="4" stroke-linecap="round"/>
</svg>
