<svg width="97" height="41" viewBox="0 0 97 41" fill="none" xmlns="http://www.w3.org/2000/svg">
<path d="M68.5 11.5H82.5M88 11.5H93M60.5 21H67.5M76 21H95M51 30.5H61.5M66 30.5H70.5M76 30.5H87" stroke="#171717" stroke-width="3" stroke-linecap="round" stroke-linejoin="round"/>
<path d="M68.7151 8H34.9168C34.3347 8 33.7815 8.25359 33.4016 8.69458L8.84774 37.1946C7.7309 38.4909 8.65187 40.5 10.363 40.5H44.0707C44.66 40.5 45.2193 40.2401 45.5993 39.7897L58.5 24.5L65.25 17.25L70.2482 11.2844C71.3388 9.98277 70.4133 8 68.7151 8Z" fill="#A640F7" fill-opacity="0.3"/>
<path d="M52.5 18.5L39.5993 33.7897C39.2193 34.2401 38.66 34.5 38.0707 34.5H4.36296C2.65187 34.5 1.7309 32.4909 2.84774 31.1946L27.4016 2.69458C27.7815 2.25359 28.3347 2 28.9168 2H62.7151C64.4133 2 65.3388 3.98277 64.2482 5.28444L59.25 11.25" stroke="#171717" stroke-width="4" stroke-linecap="round" stroke-linejoin="round"/>
<path d="M33 11H46" stroke="#1FAB89" stroke-width="3" stroke-linecap="round" stroke-linejoin="round"/>
</svg>
